<?xml version="1.0" encoding="utf-8"?>
<!-- Generator: Adobe Illustrator 23.0.1, SVG Export Plug-In . SVG Version: 6.00 Build 0)  -->
<svg version="1.1" id="Layer_1" xmlns="http://www.w3.org/2000/svg" xmlns:xlink="http://www.w3.org/1999/xlink" x="0px" y="0px"
	 width="156.2px" height="55.7px" viewBox="0 0 156.2 55.7" style="enable-background:new 0 0 156.2 55.7;" xml:space="preserve">
<style type="text/css">
	.st0{fill:#FFFFFF;}
	.st1{fill:url(#SVGID_1_);}
	.st2{fill:url(#SVGID_2_);}
	.st3{fill:#7B51A1;}
</style>
<g transform="translate(-176.5 -9.5)">
	<g transform="translate(315 -30)">
		<g transform="translate(-77.059 52.416)">
			<path class="st0" d="M23.5,6.3c-3.4,0-6.2,2.8-6.2,6.2v6.9c0,3.4,2.8,6.2,6.2,6.2c3.4,0,6.2-2.8,6.2-6.2c0,0,0,0,0,0v-6.9
				C29.7,9,27,6.3,23.5,6.3C23.5,6.3,23.5,6.3,23.5,6.3z M27.2,14.3v5.1c0,2.1-1.7,3.7-3.7,3.7s-3.7-1.7-3.7-3.7v-7.1
				c0-2.1,1.7-3.7,3.7-3.7s3.7,1.7,3.7,3.7V14.3z"/>
			<path class="st0" d="M12.3,18.4c-0.7,0-1.2,0.6-1.2,1.2l0,0c-0.1,2-1.8,3.5-3.7,3.4l0,0c-2.1,0-3.7-1.7-3.7-3.7v-3.8h5.3
				c0.7,0,1.3-0.5,1.3-1.2c0-0.7-0.5-1.3-1.2-1.3c0,0,0,0-0.1,0H3.6V7.4c0-0.7-0.6-1.2-1.3-1.2c-0.7,0-1.2,0.5-1.2,1.2v11.8
				c0,3.4,2.8,6.2,6.2,6.2l0,0c3.3,0.1,6.1-2.5,6.2-5.8v-0.1C13.6,18.9,13.1,18.4,12.3,18.4C12.4,18.4,12.4,18.4,12.3,18.4z"/>
			<path class="st0" d="M35.8,6.3L35.8,6.3c-0.7,0-1.2,0.6-1.2,1.2v16.8c0,0.7,0.6,1.2,1.2,1.2l0,0c0.7,0,1.2-0.6,1.2-1.2V7.5
				C37.1,6.8,36.5,6.3,35.8,6.3z"/>
			<path class="st0" d="M65.7,6.2c-3.4,0-6.2,2.8-6.2,6.2v6.9c0,3.4,2.8,6.2,6.2,6.2c3.3,0,6-2.5,6.2-5.8v-0.1
				c0-0.7-0.5-1.3-1.2-1.3c-0.7,0-1.3,0.5-1.3,1.2c0,0,0,0,0,0.1l0,0c-0.1,2-1.7,3.5-3.7,3.5c-2.1,0-3.7-1.7-3.7-3.7v-3.8h8.8
				c0.6-0.1,1.1-0.6,1.1-1.2v-2C71.9,9,69.1,6.2,65.7,6.2z M62,12.4c0-2.1,1.7-3.7,3.7-3.7c2.1,0,3.7,1.7,3.7,3.7v0.7H62L62,12.4
				L62,12.4z"/>
			<path class="st0" d="M62.4,3.8h6.5c0.7,0,1.3-0.5,1.3-1.2S69.7,1.4,69,1.3c0,0,0,0-0.1,0h-6.5c-0.7,0-1.2,0.6-1.2,1.2
				C61.2,3.3,61.7,3.8,62.4,3.8C62.4,3.8,62.4,3.8,62.4,3.8z"/>
			<path class="st0" d="M89.1,12.8L89.1,12.8v-0.5c0-3.4-2.8-6.2-6.2-6.2c-3.4,0-6.2,2.8-6.2,6.2v6.9c0,3.4,2.8,6.2,6.2,6.2
				c3.4,0,6.2-2.8,6.2-6.2v-5l0,0V12.8z M86.7,19.4c0,2.1-1.7,3.7-3.7,3.7c-2.1,0-3.7-1.7-3.7-3.7v-7.1c0-2.1,1.7-3.7,3.7-3.7
				c2.1,0,3.7,1.7,3.7,3.7V19.4z"/>
			<path class="st0" d="M54.6,14.3c0-0.7-0.6-1.2-1.2-1.2h-8.6V7.5c0-0.7-0.5-1.3-1.2-1.3c-0.7,0-1.3,0.5-1.3,1.2c0,0,0,0,0,0.1
				v16.8c0,0.7,0.5,1.3,1.2,1.3c0.7,0,1.3-0.5,1.3-1.2c0,0,0,0,0-0.1v-6.9l7.7,7.7c0.5,0.5,1.2,0.5,1.7,0.1c0,0,0,0,0.1-0.1
				c0.5-0.5,0.5-1.3,0-1.8l-7.8-7.8h6.9C54.1,15.6,54.6,15,54.6,14.3z"/>
		</g>
		<g transform="matrix(1, 0, 0, 1, -138.5, 39.5)">
			
				<image style="overflow:visible;opacity:0.5;" width="210" height="210" xlink:href="920F7A0C.png"  transform="matrix(0.24 0 0 0.24 2.4643 2.6123)">
			</image>
			<g>
				<g>
					
						<linearGradient id="SVGID_1_" gradientUnits="userSpaceOnUse" x1="127.2499" y1="40.2002" x2="126.2499" y2="39.2002" gradientTransform="matrix(44 0 0 -44 -5549.3467 1774.6538)">
						<stop  offset="0" style="stop-color:#FFFFFF"/>
						<stop  offset="1" style="stop-color:#E0E0E0"/>
					</linearGradient>
					<path class="st1" d="M15.6,5.8h24c5.5,0,10,4.5,10,10v24c0,5.5-4.5,10-10,10h-24c-5.5,0-10-4.5-10-10v-24
						C5.6,10.3,10.1,5.8,15.6,5.8z"/>
				</g>
			</g>
		</g>
		
			<linearGradient id="SVGID_2_" gradientUnits="userSpaceOnUse" x1="-5.8904" y1="73.8597" x2="-5.8904" y2="72.8597" gradientTransform="matrix(16.8182 0 0 -26.0702 -11.7885 1979.9385)">
			<stop  offset="0" style="stop-color:#7B51A1"/>
			<stop  offset="1" style="stop-color:#ED1B73"/>
		</linearGradient>
		<path class="st2" d="M-104.1,70.9c-0.9,0-1.7,0.8-1.7,1.7l0,0c-0.2,2.6-2.4,4.7-5,4.7l0,0c-2.8,0-5-2.3-5-5V67h7.1
			c0.9,0,1.7-0.8,1.7-1.7c0-0.9-0.8-1.7-1.7-1.7h-7.1v-7.6c0-0.9-0.8-1.7-1.7-1.7c-0.9,0-1.7,0.8-1.7,1.7v16c0,4.6,3.8,8.4,8.4,8.4
			l0,0c4.5,0.1,8.2-3.4,8.4-7.9v-0.1c0-0.9-0.7-1.6-1.6-1.6C-104,70.9-104.1,70.9-104.1,70.9z"/>
		<g transform="matrix(1, 0, 0, 1, -138.5, 39.5)">
			<circle class="st3" cx="34.1" cy="16.8" r="1.9"/>
		</g>
	</g>
</g>
</svg>
